<svg xmlns="http://www.w3.org/2000/svg" width="117.783" height="115.155" viewBox="0 0 117.783 115.155"><defs><style>.a{fill:#e28086;}.b{fill:#dd636e;}.c{fill:#42bf96;}.d{fill:#f4fbff;}.e{fill:#e4f6ff;}.f{fill:#365e7d;}</style></defs><g transform="translate(-0.005 -5.708)"><g transform="translate(1.717 62.712)"><path class="a" d="M30.473,309.166l-4.906-15.318a3.126,3.126,0,0,0-2.023-2.023L8.225,286.918a1.116,1.116,0,0,1-.449-1.853L39.338,253.5l24.549,24.549L32.326,309.615a1.116,1.116,0,0,1-1.853-.449Z" transform="translate(-7.449 -253.504)"/></g><g transform="translate(21.847 80.145)"><path class="b" d="M94.953,358.475l2.894,9.038a1.116,1.116,0,0,0,1.853.449L131.261,336.4l-7.117-7.117Z" transform="translate(-94.953 -329.283)"/></g><g transform="translate(59.635 62.712)"><path class="a" d="M292.631,309.166l4.906-15.318a3.126,3.126,0,0,1,2.023-2.023l15.319-4.906a1.116,1.116,0,0,0,.449-1.853L283.766,253.5l-24.549,24.549,31.561,31.561A1.116,1.116,0,0,0,292.631,309.166Z" transform="translate(-259.217 -253.504)"/></g><g transform="translate(77.312 62.712)"><path class="b" d="M365.374,289.694l8.668-2.776a1.116,1.116,0,0,0,.449-1.853L342.93,253.5l-6.873,6.873Z" transform="translate(-336.057 -253.504)"/></g><g transform="translate(8.021 7.422)"><path class="c" d="M134.451,61.919c0,3.723-2.673,7.094-3.465,10.577-.817,3.6.108,7.79-1.457,11.035-1.591,3.3-5.464,5.181-7.726,8.014s-3.254,7.037-6.1,9.31-7.133,2.294-10.43,3.885c-3.245,1.565-5.94,4.923-9.536,5.74-3.483.792-7.361-1.045-11.083-1.045s-7.6,1.837-11.083,1.045c-3.6-.817-6.292-4.175-9.537-5.74-3.3-1.591-7.6-1.623-10.43-3.885s-3.828-6.464-6.1-9.31-6.135-4.715-7.726-8.014c-1.565-3.245-.64-7.439-1.457-11.035-.792-3.483-3.465-6.855-3.465-10.577s2.673-7.094,3.465-10.577c.817-3.6-.108-7.79,1.457-11.035,1.591-3.3,5.464-5.181,7.726-8.014s3.254-7.037,6.1-9.31,7.133-2.294,10.43-3.885c3.245-1.565,5.94-4.923,9.536-5.74,3.483-.792,7.361,1.045,11.083,1.045s7.6-1.837,11.083-1.045c3.6.817,6.292,4.175,9.537,5.74,3.3,1.591,7.6,1.623,10.43,3.885s3.828,6.464,6.1,9.31,6.135,4.715,7.726,8.014c1.565,3.245.64,7.439,1.457,11.035.792,3.483,3.465,6.854,3.465,10.577Z" transform="translate(-34.854 -13.16)"/></g><g transform="translate(22.327 28.949)"><path class="c" d="M178.865,123.391c-.817-3.6.108-7.79-1.457-11.035-1.106-2.292-3.314-3.9-5.317-5.62.589,2.849.129,6.105.783,8.98.792,3.483,3.465,6.855,3.465,10.577s-2.673,7.094-3.465,10.577c-.817,3.6.108,7.79-1.457,11.035-1.591,3.3-5.464,5.181-7.726,8.014s-3.254,7.037-6.1,9.31-7.133,2.294-10.43,3.885c-3.245,1.565-5.94,4.923-9.536,5.74-3.483.792-7.361-1.045-11.083-1.045s-7.6,1.837-11.083,1.045c-3.6-.817-6.292-4.175-9.537-5.74-2.742-1.323-6.175-1.569-8.883-2.914,1.3,2.415,2.385,5.06,4.443,6.7,2.833,2.262,7.133,2.294,10.43,3.885,3.245,1.565,5.94,4.923,9.537,5.74,3.483.792,7.361-1.045,11.083-1.045s7.6,1.837,11.083,1.045c3.6-.817,6.292-4.175,9.536-5.74,3.3-1.591,7.6-1.623,10.43-3.885s3.828-6.464,6.1-9.31,6.135-4.715,7.726-8.014c1.565-3.245.64-7.439,1.457-11.035.792-3.483,3.465-6.855,3.465-10.577S179.657,126.874,178.865,123.391Z" transform="translate(-97.038 -106.737)"/></g><g transform="translate(22.224 20.585)"><circle class="d" cx="35.595" cy="35.595" r="35.595"/></g><g transform="translate(30.495 28.856)"><path class="e" d="M182.681,106.332a35.594,35.594,0,0,1-50.135,50.135,35.594,35.594,0,1,0,50.135-50.135Z" transform="translate(-132.546 -106.332)"/></g><g transform="translate(43.531 36.102)"><g transform="translate(0 0)"><path class="f" d="M219.935,159.168a3.139,3.139,0,0,0-1.3-2.549.236.236,0,0,1-.02-.369,3.392,3.392,0,0,0-2.159-5.917v0l-9.406-.01a.55.55,0,0,1-.544-.625c.155-1.141.319-2.236.42-3.338a9.662,9.662,0,0,0-1.056-6.181,4.371,4.371,0,0,0-5.482-2.044c-.384.136-.544.3-.5.741.187,1.722.36,3.447.474,5.176a2.94,2.94,0,0,1-.26,1.475c-1.51,2.935-3.065,5.847-4.592,8.774a8.523,8.523,0,0,0-.7,1.838.993.993,0,0,1-.965.743h-3.526a1.1,1.1,0,0,0-1.1,1.1v12.661a1.1,1.1,0,0,0,1.1,1.1h22.539a3.2,3.2,0,0,0,3.214-2.883,3.14,3.14,0,0,0-.265-1.548.238.238,0,0,1,.174-.335,3.143,3.143,0,0,0,2.145-4.674.238.238,0,0,1,.1-.333,3.143,3.143,0,0,0,1.715-2.8Z" transform="translate(-189.214 -137.833)"/></g></g><g transform="translate(0.004 5.707)"><path d="M116.957,93.062,103.582,79.687a9.876,9.876,0,0,0,.657-1.151,16.99,16.99,0,0,0,1.208-7.1,22.44,22.44,0,0,1,.377-4.3A21.426,21.426,0,0,1,107.3,63.25a17.167,17.167,0,0,0,2.029-7.07,17.166,17.166,0,0,0-2.029-7.07,21.426,21.426,0,0,1-1.478-3.887,22.438,22.438,0,0,1-.377-4.3,16.987,16.987,0,0,0-1.208-7.1A17.076,17.076,0,0,0,99.386,28.4a21.879,21.879,0,0,1-3.076-2.914,22.022,22.022,0,0,1-2.177-3.669,17.079,17.079,0,0,0-4.193-5.911,17.055,17.055,0,0,0-6.675-2.772l-.371-.1a1.713,1.713,0,1,0-.854,3.317l.375.1a14.371,14.371,0,0,1,5.388,2.13,14.389,14.389,0,0,1,3.283,4.8,24.854,24.854,0,0,0,2.548,4.243,24.687,24.687,0,0,0,3.554,3.4,14.371,14.371,0,0,1,3.968,4.286,14.323,14.323,0,0,1,.869,5.7,25.288,25.288,0,0,0,.461,4.97,24.232,24.232,0,0,0,1.7,4.539,14.447,14.447,0,0,1,1.725,5.659,14.447,14.447,0,0,1-1.725,5.658,24.225,24.225,0,0,0-1.7,4.539,25.307,25.307,0,0,0-.461,4.97,14.316,14.316,0,0,1-.869,5.7,14.378,14.378,0,0,1-3.968,4.286,24.709,24.709,0,0,0-3.554,3.4,24.872,24.872,0,0,0-2.548,4.243,14.386,14.386,0,0,1-3.283,4.8,14.364,14.364,0,0,1-5.389,2.13,25.047,25.047,0,0,0-4.718,1.55,24.533,24.533,0,0,0-4.074,2.686,14.378,14.378,0,0,1-5.1,2.927,14.283,14.283,0,0,1-5.695-.425,25.446,25.446,0,0,0-5.009-.663,25.445,25.445,0,0,0-5.009.663,14.279,14.279,0,0,1-5.694.425,14.376,14.376,0,0,1-5.1-2.927,24.55,24.55,0,0,0-4.074-2.685,25.077,25.077,0,0,0-4.718-1.55,14.369,14.369,0,0,1-5.388-2.13,14.388,14.388,0,0,1-3.283-4.8,24.868,24.868,0,0,0-2.548-4.243,24.7,24.7,0,0,0-3.554-3.4,14.375,14.375,0,0,1-3.968-4.286,14.323,14.323,0,0,1-.869-5.7,25.306,25.306,0,0,0-.461-4.97,24.235,24.235,0,0,0-1.7-4.539A14.447,14.447,0,0,1,9.733,56.18a14.445,14.445,0,0,1,1.725-5.658,24.24,24.24,0,0,0,1.7-4.539,25.289,25.289,0,0,0,.461-4.97,14.32,14.32,0,0,1,.869-5.7,14.381,14.381,0,0,1,3.968-4.286,24.686,24.686,0,0,0,3.554-3.4,24.845,24.845,0,0,0,2.548-4.243,14.386,14.386,0,0,1,3.283-4.8,14.365,14.365,0,0,1,5.388-2.13,25.077,25.077,0,0,0,4.718-1.55,24.531,24.531,0,0,0,4.074-2.686,14.377,14.377,0,0,1,5.1-2.927,14.285,14.285,0,0,1,5.695.425,25.446,25.446,0,0,0,5.009.663,25.448,25.448,0,0,0,5.009-.663,14.285,14.285,0,0,1,5.695-.425,14.379,14.379,0,0,1,5.1,2.927c.357.271.714.542,1.072.805a1.713,1.713,0,0,0,2.03-2.759c-.344-.253-.687-.513-1.03-.774a17.083,17.083,0,0,0-6.41-3.539,16.939,16.939,0,0,0-7.129.407,22.553,22.553,0,0,1-4.334.6,22.551,22.551,0,0,1-4.334-.6,16.936,16.936,0,0,0-7.129-.407,17.082,17.082,0,0,0-6.41,3.539,21.72,21.72,0,0,1-3.491,2.329,22.216,22.216,0,0,1-4.08,1.317A17.051,17.051,0,0,0,25.7,15.906a17.078,17.078,0,0,0-4.194,5.911,22.013,22.013,0,0,1-2.177,3.669A21.877,21.877,0,0,1,16.256,28.4,17.069,17.069,0,0,0,11.4,33.824a16.99,16.99,0,0,0-1.208,7.1,22.44,22.44,0,0,1-.377,4.3A21.426,21.426,0,0,1,8.339,49.11,17.167,17.167,0,0,0,6.31,56.18a17.167,17.167,0,0,0,2.029,7.07,21.426,21.426,0,0,1,1.478,3.887,22.439,22.439,0,0,1,.377,4.3,16.99,16.99,0,0,0,1.208,7.1,10.835,10.835,0,0,0,1.587,2.372L.835,93.062a2.829,2.829,0,0,0,1.138,4.695l15.319,4.906a1.417,1.417,0,0,1,.915.915L23.112,118.9a2.829,2.829,0,0,0,4.695,1.138l15.086-15.086a11.671,11.671,0,0,0,3.466,1.464,10.182,10.182,0,0,0,2.266.241A24.86,24.86,0,0,0,53.487,106a22.555,22.555,0,0,1,4.334-.6,22.548,22.548,0,0,1,4.334.6,16.94,16.94,0,0,0,7.129.407,13.441,13.441,0,0,0,4.761-2.318l15.941,15.941a2.829,2.829,0,0,0,4.695-1.138l4.906-15.319a1.416,1.416,0,0,1,.915-.915l5.34-1.71A1.713,1.713,0,0,0,104.8,97.69l-5.34,1.71a4.847,4.847,0,0,0-3.133,3.132L91.717,116.92,76.823,102.025a15.562,15.562,0,0,1,2.362-1.483,22.213,22.213,0,0,1,4.08-1.317,17.051,17.051,0,0,0,6.675-2.772,17.071,17.071,0,0,0,4.194-5.911,21.991,21.991,0,0,1,2.177-3.669,21.879,21.879,0,0,1,3.076-2.914c.652-.546,1.311-1.1,1.94-1.685l12.518,12.518-1.991.637a1.713,1.713,0,0,0,.522,3.344c.173,0,3.444-1.018,3.444-1.018a2.828,2.828,0,0,0,1.137-4.694ZM26.074,116.921l-4.608-14.388A4.847,4.847,0,0,0,18.334,99.4L3.947,94.793,15.454,83.286q.4.341.8.674a21.867,21.867,0,0,1,3.076,2.914,22.029,22.029,0,0,1,2.177,3.669A17.077,17.077,0,0,0,25.7,96.455a17.047,17.047,0,0,0,6.675,2.772,22.219,22.219,0,0,1,4.08,1.317,21.721,21.721,0,0,1,3.491,2.329l.1.075Z" transform="translate(-0.004 -5.707)"/><path d="M109.335,133.4a37.358,37.358,0,1,0-6.806-4.53,1.713,1.713,0,0,0,2.2-2.627,33.756,33.756,0,1,1,6.182,4.115,1.712,1.712,0,1,0-1.574,3.042Z" transform="translate(-68.642 -49.772)"/></g><g transform="translate(29.011 27.191)"><path d="M154.872,156.648a28.777,28.777,0,1,1,28.776-28.776A28.809,28.809,0,0,1,154.872,156.648Zm0-54.218a25.441,25.441,0,1,0,25.441,25.441,25.47,25.47,0,0,0-25.441-25.441Z" transform="translate(-126.096 -99.095)"/></g><g transform="translate(41.806 34.381)"><g transform="translate(0 0)"><path d="M207.078,167.706H184.539a2.825,2.825,0,0,1-2.825-2.825V152.22a2.825,2.825,0,0,1,2.825-2.825h2.978a10.268,10.268,0,0,1,.686-1.654c.588-1.128,3.662-6.966,4.588-8.765a1.321,1.321,0,0,0,.072-.572c-.118-1.792-.3-3.585-.467-5.1a2.307,2.307,0,0,1,1.634-2.553,6.114,6.114,0,0,1,7.528,2.764,11.446,11.446,0,0,1,1.305,7.243c-.063.7-.152,1.4-.245,2.082l7.969.013a5.3,5.3,0,0,1,4.91,3.768,4.906,4.906,0,0,1,.192,1.345,5.122,5.122,0,0,1-.716,2.61,4.868,4.868,0,0,1-.616,6.38,4.87,4.87,0,0,1-2.351,5.423,4.866,4.866,0,0,1-4.928,5.331Zm-21.913-3.451h21.913a1.469,1.469,0,0,0,1.495-1.3,1.408,1.408,0,0,0-.118-.7,1.964,1.964,0,0,1,1.435-2.74,1.416,1.416,0,0,0,1.16-1.395,1.394,1.394,0,0,0-.192-.712,1.964,1.964,0,0,1,.8-2.74,1.418,1.418,0,0,0,.185-2.415,1.962,1.962,0,0,1-.162-3.051,1.666,1.666,0,0,0-1.059-2.908l-.059,0-9.3-.009a2.276,2.276,0,0,1-2.252-2.583s.333-2.411.411-3.262c.215-2.358-.018-3.841-.806-5.119a2.676,2.676,0,0,0-2.7-1.5c.141,1.345.285,2.846.385,4.358a4.676,4.676,0,0,1-.447,2.378c-.933,1.813-4.01,7.659-4.6,8.783a6.807,6.807,0,0,0-.561,1.466,2.716,2.716,0,0,1-2.637,2.041h-2.9Zm28.068-6.512h0Z" transform="translate(-181.714 -130.351)"/></g></g></g></svg>