<?xml version="1.0" encoding="iso-8859-1"?>
<!-- Generator: Adobe Illustrator 19.0.0, SVG Export Plug-In . SVG Version: 6.00 Build 0)  -->
<svg version="1.1" id="Capa_1" xmlns="http://www.w3.org/2000/svg" xmlns:xlink="http://www.w3.org/1999/xlink" x="0px" y="0px"
	 viewBox="0 0 512 512" style="enable-background:new 0 0 512 512;" xml:space="preserve">
<path style="fill:#D9EEF7;" d="M362.667,458.667v32c0,5.891-4.776,10.667-10.667,10.667H160c-5.891,0-10.667-4.776-10.667-10.667
	v-32H362.667z"/>
<path style="fill:#AAC4DA;" d="M181.333,373.333h149.333v85.333H181.333V373.333z"/>
<path style="fill:#D9EEF7;" d="M501.333,32v320c-0.035,11.768-9.566,21.298-21.333,21.333H32
	c-11.767-0.035-21.298-9.566-21.333-21.333V32C10.702,20.233,20.233,10.702,32,10.667h448C491.768,10.702,501.298,20.233,501.333,32
	z"/>
<path style="fill:#69F0F7;" d="M64,64h384v256H64V64z"/>
<g>
	<circle style="fill:#F2F2F2;" cx="437.333" cy="277.333" r="21.333"/>
	<circle style="fill:#F2F2F2;" cx="74.667" cy="106.667" r="21.333"/>
</g>
<path style="fill:#FF7260;" d="M192,106.667h128c11.782,0,21.333,9.551,21.333,21.333v128c0,11.782-9.551,21.333-21.333,21.333H192
	c-11.782,0-21.333-9.551-21.333-21.333V128C170.667,116.218,180.218,106.667,192,106.667z"/>
<g>
	<path style="fill:#4C5B66;" d="M480,0H32C14.327,0,0,14.327,0,32v320c0,17.673,14.327,32,32,32h138.667v64h-21.333
		c-5.891,0-10.667,4.776-10.667,10.667v32h-21.333V512h277.333v-21.333h-21.333v-32c0-5.891-4.776-10.667-10.667-10.667h-21.333v-64
		H480c17.673,0,32-14.327,32-32V32C512,14.327,497.673,0,480,0z M352,490.667H160v-21.333h192V490.667z M320,448H192v-64h128V448z
		 M490.667,352c0,5.891-4.776,10.667-10.667,10.667H32c-5.891,0-10.667-4.776-10.667-10.667V32c0-5.891,4.776-10.667,10.667-10.667
		h448c5.891,0,10.667,4.776,10.667,10.667V352z"/>
	<path style="fill:#4C5B66;" d="M437.333,117.333h21.333V64c0-5.891-4.776-10.667-10.667-10.667H330.667v21.333h106.667V117.333z"/>
	<path style="fill:#4C5B66;" d="M74.667,266.667H53.333V320c0,5.891,4.776,10.667,10.667,10.667h117.333v-21.333H74.667V266.667z"/>
	<path style="fill:#4C5B66;" d="M448,247.296v-33.963c0.502-17.171-13.01-31.498-30.181-32c-0.606-0.018-1.213-0.018-1.819,0h-64
		V160h32v-21.333h-32V128c0-17.673-14.327-32-32-32h-10.667V64H288v32h-21.333V64h-21.333v32H224V64h-21.333v32H192
		c-17.673,0-32,14.327-32,32v10.667h-32V160h32v21.333H96.128c-5.384,0.572-10.211-3.329-10.783-8.713
		c-0.069-0.649-0.073-1.304-0.012-1.954v-33.963c16.662-5.891,25.394-24.174,19.503-40.837C98.946,79.205,80.662,70.473,64,76.364
		s-25.394,24.174-19.503,40.837c3.222,9.113,10.39,16.281,19.503,19.503v33.963c-0.502,17.171,13.01,31.498,30.181,32
		c0.606,0.018,1.213,0.018,1.819,0h64V224h-32v21.333h32V256c0,17.673,14.327,32,32,32h10.667v32H224v-32h21.333v32h21.333v-32H288
		v32h21.333v-32H320c17.673,0,32-14.327,32-32v-10.667h32V224h-32v-21.333h63.872c5.384-0.572,10.211,3.329,10.783,8.713
		c0.069,0.649,0.073,1.304,0.012,1.954v33.963c-16.662,5.891-25.394,24.174-19.503,40.837c5.891,16.662,24.174,25.394,40.837,19.503
		c16.662-5.891,25.394-24.174,19.503-40.837C464.281,257.686,457.113,250.518,448,247.296z M74.667,96
		c5.891,0,10.667,4.776,10.667,10.667c0,5.891-4.776,10.667-10.667,10.667S64,112.558,64,106.667C64,100.776,68.776,96,74.667,96z
		 M330.667,256c0,5.891-4.776,10.667-10.667,10.667H192c-5.891,0-10.667-4.776-10.667-10.667V128
		c0-5.891,4.776-10.667,10.667-10.667h128c5.891,0,10.667,4.776,10.667,10.667V256z M437.333,288
		c-5.891,0-10.667-4.776-10.667-10.667s4.776-10.667,10.667-10.667S448,271.442,448,277.333S443.224,288,437.333,288z"/>
	<path style="fill:#4C5B66;" d="M245.333,149.333H224c-11.538-0.244-21.089,8.911-21.333,20.449c-0.006,0.295-0.006,0.589,0,0.884
		v64H224v-21.333h21.333v21.333h21.333v-64c0.244-11.538-8.911-21.089-20.449-21.333
		C245.923,149.327,245.628,149.327,245.333,149.333z M224,192v-21.333h21.333V192H224z"/>
	<path style="fill:#4C5B66;" d="M288,149.333h21.333v85.333H288V149.333z"/>
	<path style="fill:#4C5B66;" d="M53.333,224h21.333v21.333H53.333V224z"/>
	<path style="fill:#4C5B66;" d="M437.333,138.667h21.333V160h-21.333V138.667z"/>
</g>
<g>
</g>
<g>
</g>
<g>
</g>
<g>
</g>
<g>
</g>
<g>
</g>
<g>
</g>
<g>
</g>
<g>
</g>
<g>
</g>
<g>
</g>
<g>
</g>
<g>
</g>
<g>
</g>
<g>
</g>
</svg>
