<svg id="Capa_1" enable-background="new 0 0 511.9 511.9" height="512" viewBox="0 0 511.9 511.9" width="512" xmlns="http://www.w3.org/2000/svg"><path d="m275.828 470.417c-14.857 4.599-30.635 7.08-46.983 7.08-87.758 0-159.154-71.396-159.154-159.154 0-10.703 1.069-21.16 3.094-31.276h-20.617v209.833c0 8.284 6.716 15 15 15h290.046c.916 0 1.808-.095 2.678-.252-32.56-4.264-61.797-19.226-84.064-41.231z"/><path d="m228.845 447.498c9 0 17.787-.928 26.272-2.689-14.563-22.805-23.013-49.875-23.013-78.883 0-28.997 8.444-56.058 22.998-78.858h-151.574c-2.501 10.019-3.837 20.494-3.837 31.276 0 71.216 57.938 129.154 129.154 129.154z"/><path d="m408.29 166.984c-6.296-39.651-25.625-75.02-53.456-101.551l-10.665 40.198c-1.782 6.718-7.852 11.157-14.488 11.157-1.273 0-2.567-.164-3.856-.505-8.007-2.125-12.776-10.338-10.651-18.345l14.019-52.839c-10.779-7.063-22.36-12.995-34.576-17.63l-16.655 93.45c-1.295 7.266-7.619 12.371-14.75 12.371-.874 0-1.76-.077-2.649-.235-8.155-1.453-13.589-9.243-12.136-17.399l20.611-115.656h-80.388l20.612 115.654c1.453 8.156-3.98 15.946-12.136 17.399-8.156 1.456-15.946-3.979-17.399-12.135l-16.655-93.45c-12.216 4.636-23.797 10.568-34.576 17.631l14.02 52.839c2.125 8.007-2.644 16.22-10.651 18.345-1.288.342-2.583.505-3.856.505-6.638 0-12.706-4.438-14.488-11.157l-10.666-40.198c-27.831 26.531-47.159 61.9-53.455 101.551z"/><path d="m280.432 257.068c26.1-23.673 60.717-38.115 98.645-38.115 24.425 0 47.473 5.997 67.761 16.583.796-2.699 1.23-5.553 1.23-8.51 0-16.592-13.45-30.042-30.042-30.042h-372.135c-16.592 0-30.042 13.45-30.042 30.042 0 16.592 13.45 30.042 30.042 30.042z"/><path d="m379.077 248.953c-64.499 0-116.974 52.474-116.974 116.974s52.475 116.973 116.974 116.973 116.974-52.474 116.974-116.974-52.475-116.973-116.974-116.973zm82.606 154.286c0 8.284-6.716 15-15 15h-40.739c-4.339 0-8.465-1.879-11.313-5.151-2.85-3.272-4.142-7.618-3.543-11.916.082-.594.124-1.169.124-1.71 0-6.69-5.443-12.134-12.134-12.134s-12.135 5.443-12.135 12.134c0 .541.042 1.117.124 1.71.599 4.297-.693 8.643-3.543 11.916-2.849 3.272-6.975 5.151-11.313 5.151h-40.739c-8.284 0-15-6.716-15-15v-75.638c0-8.284 6.716-15 15-15h135.212c8.284 0 15 6.716 15 15v75.638z"/><path d="m326.471 342.601v45.638h11.989c4.925-17.801 21.27-30.911 40.617-30.911s35.691 13.11 40.616 30.911h11.989v-45.638z"/></svg>