<svg id="Layer_5" enable-background="new 0 0 64 64" height="512" viewBox="0 0 64 64" width="512" xmlns="http://www.w3.org/2000/svg" xmlns:xlink="http://www.w3.org/1999/xlink"><linearGradient id="SVGID_1_" gradientUnits="userSpaceOnUse" x1="32" x2="32" y1="63" y2="1"><stop offset="0" stop-color="#9f2fff"/><stop offset="1" stop-color="#0bb1d3"/></linearGradient><path d="m61.389 20.975c.389-.499.611-1.103.611-1.746v-.846c0-.391-.078-.771-.231-1.128l-2.366-5.519c-.452-1.055-1.484-1.736-2.632-1.736-.765 0-1.483.297-2.024.838l-12.447 12.447c-.19-.397-.3-.831-.3-1.285 0-1.654 1.346-3 3-3v-2c-1.654 0-3-1.346-3-3s1.346-3 3-3v-2c-1.654 0-3-1.346-3-3s1.346-3 3-3v-2h-16-3-20c-2.757 0-5 2.243-5 5 0 1.641.806 3.088 2.031 4-1.225.912-2.031 2.359-2.031 4s.806 3.088 2.031 4c-1.225.912-2.031 2.359-2.031 4 0 2.757 2.243 5 5 5h20 3 9.586l-2 2h-8.586c-1.641 0-3.088.806-4 2.031-.912-1.225-2.359-2.031-4-2.031h-15v4h-4v26h18.101c.465 2.279 2.484 4 4.899 4s4.435-1.721 4.899-4h18.101v-23.586l4.272-4.272c.487 1.092 1.578 1.858 2.849 1.858.822 0 1.626-.333 2.207-.914l5.672-5.671c.645-.645 1-1.502 1-2.415s-.355-1.77-1-2.414zm-5.228-8.723c.407-.407 1.177-.259 1.403.271l2.366 5.52c.047.107.07.221.07.339v.846c0 .23-.09.447-.253.61l-5.044 5.044-8.778-2.394zm-18.161 29.334-5.586-5.586 11.882-11.883 8.778 2.394zm-6.609-3.781 4.804 4.804-6.346 2.38c-.431-.065-.771-.407-.837-.838zm8.71-24.805h-11.101v2h11.101c.152.743.482 1.416.924 2h-12.025-3c-1.654 0-3-1.346-3-3s1.346-3 3-3h3 12.026c-.443.584-.773 1.257-.925 2zm-11.101-10h12.026c-.442.584-.773 1.257-.924 2h-11.102v2h11.101c.152.743.482 1.416.924 2h-12.025-3c-1.654 0-3-1.346-3-3s1.346-3 3-3zm-26 3c0-1.654 1.346-3 3-3h16.026c-.635.838-1.026 1.87-1.026 3s.391 2.162 1.026 3h-16.026c-1.654 0-3-1.346-3-3zm0 8c0-1.654 1.346-3 3-3h16.026c-.635.838-1.026 1.87-1.026 3s.391 2.162 1.026 3h-16.026c-1.654 0-3-1.346-3-3zm0 8c0-1.654 1.346-3 3-3h16.026c-.635.838-1.026 1.87-1.026 3s.391 2.162 1.026 3h-16.026c-1.654 0-3-1.346-3-3zm26 3h-3c-1.654 0-3-1.346-3-3s1.346-3 3-3h3 12.026c-.442.584-.773 1.257-.924 2h-11.102v2h11.101c.127.628.373 1.223.728 1.757l-.243.243zm-1 6h6.586l-4.446 4.446-3.14 8.373v.181c0 1.654 1.346 3 3 3h.182l8.372-3.14 2.446-2.446v11.586h-16v-19c0-1.654 1.346-3 3-3zm-21 0h13c1.654 0 3 1.346 3 3v19h-16zm38 26h-18v1c0 1.654-1.346 3-3 3s-3-1.346-3-3v-1h-18v-22h2v20h18 2 18v-15.586l2-2zm15.586-32-5.672 5.672c-.209.208-.498.328-.793.328-.618 0-1.121-.503-1.121-1.121v-.465l7-7 .586.586c.268.267.414.622.414 1s-.146.733-.414 1zm-35.586-20h2v2h-2zm-8 0h2v2h-2zm-4 0h2v2h-2zm-4 0h2v2h-2zm-4 0h2v2h-2zm20 8h2v2h-2zm-12 0h2v2h-2zm4 0h2v2h-2zm-12 0h2v2h-2zm4 0h2v2h-2zm16 8h2v2h-2zm-16 0h2v2h-2zm-4 0h2v2h-2zm8 0h2v2h-2zm4 0h2v2h-2zm22 30h-12v-2h12zm-30-12h12v-6h-12zm2-4h8v2h-8zm-2 6h12v2h-12zm0 4h12v2h-12zm0 4h12v2h-12z" fill="url(#SVGID_1_)"/></svg>