<svg id="Capa_1" enable-background="new 0 0 512 512" height="512" viewBox="0 0 512 512" width="512" xmlns="http://www.w3.org/2000/svg"><g><g><g><g><g><g><g><g><circle cx="256" cy="256" fill="#2fddd0" r="256"/></g></g></g></g></g></g></g><path d="m264.088 511.875c137.642-4.272 247.912-117.196 247.912-255.875 0-2.294-.03-4.581-.09-6.86l-88.211-88.211-359.581 146.546 85.257 85.256-3.157 1.272z" fill="#22bcbc"/><g><path d="m157.556 345.169-11.339 25.412v23.423h76.062v-23.423l-11.338-25.412z" fill="#e9edf5"/></g><g><path d="m317.084 345.169-11.338 25.412v23.423h76.062v-23.423l-11.339-25.412z" fill="#e9edf5"/></g><g><path d="m64.118 204.525h54.733v102.95h-54.733z" fill="#e9edf5"/></g><g><path d="m64.118 255.25h54.733v52.225h-54.733z" fill="#dce1eb"/></g><g><path d="m94.09 179.439h73.294v153.122h-73.294z" fill="#7e8596"/></g><g><path d="m399.549 360.579h-30.491v-209.158h30.491c19.579 0 35.451 15.872 35.451 35.451v138.257c0 19.578-15.872 35.45-35.451 35.45z" fill="#7e8596"/></g><g><path d="m94.09 255.25h73.294v77.311h-73.294z" fill="#636978"/></g><g><path d="m369.058 255.25v105.329h30.491c19.579 0 35.451-15.872 35.451-35.451v-69.878z" fill="#636978"/></g><g><path d="m130.192 151.421h251.616v209.158h-251.616z" fill="#636978"/></g><g><path d="m130.192 255.25h251.616v105.329h-251.616z" fill="#414952"/></g><g><g><path d="m167.385 179.439h177.23v33.231h-177.23z" fill="#9196aa"/></g><g><path d="m167.385 299.33h177.23v33.231h-177.23z" fill="#707789"/></g></g><g><path d="m167.385 239.385h177.23v33.231h-177.23z" fill="#9196aa"/></g><g><path d="m167.385 255.25h177.23v17.365h-177.23z" fill="#707789"/></g></g></svg>