<svg xmlns="http://www.w3.org/2000/svg" width="137.436" height="105.381" viewBox="0 0 137.436 105.381"><defs><style>.a{fill:#4edfaf;}.b{fill:#ededed;}.c{fill:#e3e7f2;}.d{fill:#fff;}.e{fill:#42bf96;}</style></defs><g transform="translate(0 -60.708)"><g transform="translate(2.29 63.012)"><path class="a" d="M12.114,67.292H135.806a4.581,4.581,0,0,1,4.581,4.581V163.5a4.581,4.581,0,0,1-4.581,4.581H12.114A4.581,4.581,0,0,1,7.533,163.5V71.873A4.581,4.581,0,0,1,12.114,67.292Z" transform="translate(-7.533 -67.292)"/><path class="b" d="M133.515,71.873V163.5a4.6,4.6,0,0,1-4.581,4.581H12.114a6.868,6.868,0,0,1-.687-.046c-.069-.023-.16-.023-.229-.046a3.712,3.712,0,0,1-.664-.206h-.023a4.056,4.056,0,0,1-.71-.344,5.508,5.508,0,0,1-.6-.412l-.046-.046A4.549,4.549,0,0,1,7.533,163.5V71.873a4.41,4.41,0,0,1,1.145-3c.115-.115.229-.252.366-.366a4.449,4.449,0,0,1,3.069-1.214h116.82A4.6,4.6,0,0,1,133.515,71.873Z" transform="translate(-7.532 -67.292)"/><path class="a" d="M464.381,73.751V71.873a4.6,4.6,0,0,0-4.581-4.581h6.872a4.526,4.526,0,0,1,3.436,1.581Z" transform="translate(-338.398 -67.292)"/><path class="c" d="M136.637,71.873v1.878L91.123,112.623l-9.62,8.223a6.858,6.858,0,0,1-8.842,0l-9.643-8.223L11.8,68.872c.115-.115.229-.252.366-.366a4.449,4.449,0,0,1,3.069-1.214h116.82A4.6,4.6,0,0,1,136.637,71.873Z" transform="translate(-10.654 -67.292)"/><path class="a" d="M469.627,423.367a4.524,4.524,0,0,1-2.955,1.1H459.8a4.6,4.6,0,0,0,4.581-4.581v-2.13Z" transform="translate(-338.398 -323.681)"/><path class="c" d="M137.948,284.91v2.13a4.6,4.6,0,0,1-4.581,4.581H16.547a6.873,6.873,0,0,1-.687-.046c-.069-.023-.16-.023-.229-.046a3.71,3.71,0,0,1-.664-.206h-.023a4.055,4.055,0,0,1-.71-.344,5.508,5.508,0,0,1-.6-.412l-.046-.046,50.737-54.356,9.643,8.223a6.858,6.858,0,0,0,8.842,0l9.62-8.223Z" transform="translate(-11.965 -190.835)"/><path class="d" d="M7.726,164.734a4.864,4.864,0,0,0,.229.648c.041.089.094.172.142.261a4.746,4.746,0,0,0,.341.554c.057.076.119.144.181.218a4.4,4.4,0,0,0,.474.493c.025.023.043.05.069.071l.046.046c.053.039.112.076.167.117.115.085.229.167.353.243a.826.826,0,0,0,.076.053c.06.037.126.057.185.089a4.473,4.473,0,0,0,.472.229l.053.025h.023a3.7,3.7,0,0,0,.664.206c.069.023.16.023.229.046.229.023.458.046.687.046h6.87a6.863,6.863,0,0,1-.687-.046c-.069-.023-.16-.023-.229-.046a3.711,3.711,0,0,1-.664-.206h-.023l-.053-.025a4.524,4.524,0,0,1-.472-.229c-.06-.032-.126-.053-.185-.089-.026-.016-.051-.034-.076-.053-.124-.076-.229-.158-.353-.243-.055-.041-.115-.078-.167-.117l-.046-.046c-.025-.021-.043-.048-.069-.071a4.372,4.372,0,0,1-.474-.493c-.062-.073-.124-.142-.181-.218a4.674,4.674,0,0,1-.341-.554c-.048-.089-.1-.172-.142-.261a4.79,4.79,0,0,1-.229-.648c-.025-.089-.062-.172-.082-.261a4.572,4.572,0,0,1-.108-.976V71.873a4.576,4.576,0,0,1,.092-.891.889.889,0,0,1,.053-.195,4.387,4.387,0,0,1,.2-.637c.039-.092.089-.176.133-.266a4.336,4.336,0,0,1,.245-.458,4.425,4.425,0,0,1,.355-.463c.025-.027.043-.062.069-.092l.037-.037a4.62,4.62,0,0,1,.96-.822c.062-.041.13-.069.195-.105a4.422,4.422,0,0,1,.527-.275,4.647,4.647,0,0,1,.5-.154c.11-.032.213-.073.325-.1a4.424,4.424,0,0,1,.9-.092H12.115a4.443,4.443,0,0,0-.9.092c-.112.023-.215.064-.325.1a4.666,4.666,0,0,0-.5.154,4.443,4.443,0,0,0-.527.275c-.064.037-.133.064-.195.105a4.636,4.636,0,0,0-.96.822l-.037.037c-.025.03-.043.064-.069.092a4.469,4.469,0,0,0-.355.469,4.287,4.287,0,0,0-.245.458c-.043.089-.094.174-.133.266a4.342,4.342,0,0,0-.2.637c-.016.066-.041.128-.053.195a4.57,4.57,0,0,0-.092.884V163.5a4.571,4.571,0,0,0,.11.976C7.664,164.562,7.7,164.642,7.726,164.734Z" transform="translate(-7.534 -67.292)"/></g><g transform="translate(0 60.708)"><path class="d" d="M25.6,60.758H149.292v4.581H25.6Z" transform="translate(-18.728 -60.744)"/><path class="e" d="M89.25,64.638a2.365,2.365,0,0,0,.481-.756A2.287,2.287,0,0,0,86,61.385l-.275.344a1.733,1.733,0,0,0-.206.412,1.454,1.454,0,0,0-.137.412,3.45,3.45,0,0,0-.046.458A2.41,2.41,0,0,0,86,64.638a2.365,2.365,0,0,0,.756.481A2.338,2.338,0,0,0,89.25,64.638Z" transform="translate(-62.427 -60.708)"/><path class="e" d="M130.564,60.758h-96.2a2.291,2.291,0,0,0,0,4.581h96.2a2.291,2.291,0,0,1,2.29,2.291v91.624a2.29,2.29,0,0,1-2.29,2.291H6.872a2.291,2.291,0,0,1-2.291-2.291V67.63a2.291,2.291,0,0,1,2.291-2.29h9.162a2.291,2.291,0,0,0,0-4.581H6.872A6.872,6.872,0,0,0,0,67.63v91.624a6.872,6.872,0,0,0,6.872,6.872H130.564a6.872,6.872,0,0,0,6.872-6.872V67.63A6.872,6.872,0,0,0,130.564,60.758Z" transform="translate(0 -60.744)"/><path class="e" d="M34.668,95.708a2.29,2.29,0,0,0,.282,3.227l52.844,44.389a9.151,9.151,0,0,0,11.788,0l52.844-44.389a2.291,2.291,0,0,0-2.945-3.509L96.635,139.818a4.582,4.582,0,0,1-5.9,0L37.9,95.426a2.29,2.29,0,0,0-3.228.282Z" transform="translate(-24.97 -85.714)"/><path class="e" d="M66.72,274.716,34.652,309.075A2.291,2.291,0,1,0,38,312.2l32.068-34.359a2.291,2.291,0,1,0-3.349-3.124Z" transform="translate(-24.873 -216.709)"/><path class="e" d="M342.064,274.71a2.291,2.291,0,0,0-.112,3.237l32.068,34.359a2.291,2.291,0,0,0,3.349-3.124L345.3,274.822A2.291,2.291,0,0,0,342.064,274.71Z" transform="translate(-249.712 -216.815)"/></g></g></svg>