<svg xmlns="http://www.w3.org/2000/svg" width="149.606" height="125.477" viewBox="0 0 149.606 125.477"><defs><style>.a{fill:#f7d881;}.b{fill:#f2c351;}.c{fill:#8892a0;}.d{fill:#78b75b;}.e{fill:#e47c6e;}.f{fill:#e7e4dd;}.g{fill:#96cc7f;}</style></defs><g transform="translate(-0.999 -5.999)"><path class="a" d="M127.474,25V92.563a9.652,9.652,0,1,1,9.652,9.652H11.652A9.652,9.652,0,1,1,21.3,92.563V25Z" transform="translate(1.414 26.848)"/><path class="b" d="M47.384,28.385c2.937,1.24,4.92,3.6,4.92,6.31,0,4-4.322,7.239-9.652,7.239S33,38.693,33,34.695c0-2.707,1.983-5.07,4.92-6.31" transform="translate(45.216 31.631)"/><path class="c" d="M10,58.782h9.652a4.825,4.825,0,0,0,4.826-4.826V47.108a7.238,7.238,0,0,1,4.949-6.867L41.243,36.3a7.239,7.239,0,0,0,4.951-6.867V25h9.652v6.455a14.478,14.478,0,0,1-9.9,13.735L35.778,48.58a2.412,2.412,0,0,0-1.648,2.29v3.086a4.825,4.825,0,0,0,4.826,4.826H87.215a4.825,4.825,0,0,0,4.826-4.826V25h9.652V53.956a4.825,4.825,0,0,0,4.826,4.826h9.652v9.652H104.106a2.414,2.414,0,0,0-2.413,2.413V80.5a2.414,2.414,0,0,0,2.413,2.413h12.065v9.652H104.106a2.414,2.414,0,0,0-2.413,2.413v7.239H92.041V73.259a4.825,4.825,0,0,0-4.826-4.826H65.5a4.825,4.825,0,0,0-4.826,4.826v28.956H51.02V68.433H34.13v1.9a57.47,57.47,0,0,1-9.652,31.878H12.413l2.246-3.147a52.687,52.687,0,0,0,9.818-30.635H10Z" transform="translate(12.718 26.848)"/><path class="d" d="M2,98.215a9.652,9.652,0,0,1,19.3,0V30.652a9.652,9.652,0,0,0-19.3,0Z" transform="translate(1.414 21.196)"/><path class="d" d="M54,98.215a9.652,9.652,0,0,1,19.3,0V30.652a9.652,9.652,0,1,0-19.3,0Z" transform="translate(74.889 21.196)"/><path class="e" d="M49.717,64.911,67.09,41.747a21.717,21.717,0,1,0-34.747,0Z" transform="translate(38.152 1.414)"/><ellipse class="f" cx="10" cy="9.5" rx="10" ry="9.5" transform="translate(77.998 18.475)"/><path class="g" d="M54,30.652V78.561A66.453,66.453,0,0,0,68.478,37.075a66.9,66.9,0,0,0-1.841-15.556A9.533,9.533,0,0,0,54,30.652Z" transform="translate(74.889 21.196)"/><path class="g" d="M2,30.652V78.561A66.453,66.453,0,0,0,16.478,37.075a66.9,66.9,0,0,0-1.841-15.556A9.559,9.559,0,0,0,11.652,21,9.652,9.652,0,0,0,2,30.652Z" transform="translate(1.414 21.196)"/><g transform="translate(0.999 5.999)"><path d="M138.538,39.778a12.088,12.088,0,0,0-11.819,9.657H103.55l3.619-4.828a24.127,24.127,0,1,0-38.607,0l3.622,4.828-47.3,0A12.065,12.065,0,0,0,1,51.843v67.566a12.078,12.078,0,0,0,12.062,12.065l125.479,0a12.079,12.079,0,0,0,12.065-12.065V51.848a12.082,12.082,0,0,0-12.067-12.07Zm-12.062,67.563h-9.652V97.692h9.652Zm0-14.475h-9.652A4.828,4.828,0,0,0,112,97.692v9.649a4.828,4.828,0,0,0,4.826,4.826h9.652V117l-9.652,0A4.828,4.828,0,0,0,112,121.821v4.828H107.17l0-26.545a7.248,7.248,0,0,0-7.239-7.239H78.216a7.248,7.248,0,0,0-7.239,7.239v26.543H66.149V95.279a2.411,2.411,0,0,0-2.413-2.413H46.848a2.411,2.411,0,0,0-2.413,2.413v1.9a54.863,54.863,0,0,1-8.588,29.467H29.781a54.789,54.789,0,0,0,9.828-31.369A2.41,2.41,0,0,0,37.2,92.866H25.131V88.038H32.37A7.249,7.249,0,0,0,39.609,80.8l0-6.843a4.819,4.819,0,0,1,3.3-4.58l11.816-3.938a9.636,9.636,0,0,0,6.6-9.157v-2.02h4.833V58.3A12.06,12.06,0,0,1,57.9,69.747L47.733,73.135a4.819,4.819,0,0,0-3.3,4.58V80.8a7.249,7.249,0,0,0,7.239,7.236H99.928a7.247,7.247,0,0,0,7.239-7.236l0-26.543H112V80.8a7.248,7.248,0,0,0,7.239,7.239h7.239ZM102.344,126.65H75.8V100.107a2.414,2.414,0,0,1,2.413-2.413H99.928a2.414,2.414,0,0,1,2.413,2.413Zm-41.02,0H41.508a59.68,59.68,0,0,0,7.75-28.956H61.323ZM34.783,80.8a2.415,2.415,0,0,1-2.413,2.413H25.129V54.256l31.366,0v2.02a4.818,4.818,0,0,1-3.3,4.58L41.382,64.8a9.64,9.64,0,0,0-6.6,9.16Zm91.693,2.413h-7.239a2.414,2.414,0,0,1-2.413-2.413V54.258h9.652ZM87.868,10.825a19.3,19.3,0,0,1,15.438,30.886L87.866,62.3,72.425,41.711A19.3,19.3,0,0,1,87.868,10.825Zm7.234,55.5c0,2.618-3.313,4.826-7.236,4.826s-7.239-2.208-7.239-4.826a4.1,4.1,0,0,1,1.856-3.156l3.455,4.606a2.413,2.413,0,0,0,3.861,0l3.453-4.6A4.107,4.107,0,0,1,95.1,66.323ZM79.575,59.292A8.851,8.851,0,0,0,75.8,66.323c0,5.323,5.41,9.652,12.065,9.652s12.062-4.329,12.062-9.652a8.862,8.862,0,0,0-3.771-7.031l3.776-5.033h2.413l0,26.54a2.414,2.414,0,0,1-2.413,2.413H51.671A2.414,2.414,0,0,1,49.258,80.8V77.715l10.166-3.388A16.88,16.88,0,0,0,70.978,58.3V54.261H75.8ZM5.825,51.843a7.239,7.239,0,1,1,14.478,0v57.918a12.046,12.046,0,0,0-14.478,0Zm0,67.566a7.239,7.239,0,1,1,14.478,0,2.413,2.413,0,1,0,4.826,0V97.692h9.6a49.976,49.976,0,0,1-9.312,26.82l-1.525,2.135H13.061a7.249,7.249,0,0,1-7.236-7.239Zm132.716,7.241H116.824l0-4.828,12.065,0h0a2.414,2.414,0,0,0,2.413-2.413,7.239,7.239,0,1,1,7.239,7.239Zm7.239-16.886a12.046,12.046,0,0,0-14.478,0V51.845a7.242,7.242,0,0,1,7.239-7.241,7.252,7.252,0,0,1,7.239,7.244Z" transform="translate(-0.999 -5.999)"/><path d="M44.065,34.127A12.064,12.064,0,1,0,32,22.065,12.074,12.074,0,0,0,44.065,34.127Zm0-19.3a7.238,7.238,0,1,1-7.239,7.239A7.247,7.247,0,0,1,44.065,14.826Z" transform="translate(42.804 -0.346)"/></g></g></svg>