<?xml version="1.0" encoding="iso-8859-1"?>
<!-- Generator: Adobe Illustrator 19.0.0, SVG Export Plug-In . SVG Version: 6.00 Build 0)  -->
<svg version="1.1" id="Capa_1" xmlns="http://www.w3.org/2000/svg" xmlns:xlink="http://www.w3.org/1999/xlink" x="0px" y="0px"
	 viewBox="0 0 512.002 512.002" style="enable-background:new 0 0 512.002 512.002;" xml:space="preserve">
<g>
	<g>
		<g>
			<circle cx="132.415" cy="79.45" r="17.655"/>
			<path d="M441.38,129.331v117.843h-3.09c-3.477-0.021-6.634,2.025-8.033,5.208l-29.131,65.412h98.163l-29.131-65.412
				c-1.399-3.183-4.556-5.23-8.033-5.208h-3.09V79.45c0.004-42.369-33.244-77.285-75.563-79.354s-78.814,29.438-82.942,71.606
				l-0.322,0.042c0.073,0.573,0.15,1.249,0.225,1.884c-0.141,1.93-0.294,3.857-0.294,5.823c0.023,6.969,0.965,13.904,2.802,20.627
				c0.315,3.684,0.638,7.534,0.974,11.528c1.74,20.784,3.834,45.732,6.427,68.895c-30.007-28.344-76.762-28.857-107.384-1.178
				c2.085-20.276,3.811-41.445,5.284-59.545c0.74-9.154,1.425-17.58,2.06-24.666c5.968-29.676-5.446-60.165-29.436-78.626
				C156.878-1.975,124.482-5.2,97.324,8.17S52.966,49.18,52.967,79.45v308.966h-3.09c-3.477-0.021-6.634,2.025-8.033,5.208
				l-29.131,65.412h98.163l-29.132-65.412c-1.399-3.183-4.556-5.23-8.033-5.208h-3.09V129.331
				c14.249,17.691,35.398,28.424,58.088,29.481c22.691,1.057,44.746-7.663,60.578-23.952c-2.109,25.395-4.694,53.964-7.96,76.577
				c-11.459,31.099-2.427,66.044,22.667,87.695c25.094,21.651,60.986,25.466,90.07,9.573c29.084-15.892,45.261-48.158,40.595-80.971
				l0.583-0.129c-5.515-30.338-9.367-60.955-11.539-91.714c15.954,15.819,37.865,24.135,60.297,22.884
				C406.433,157.525,427.284,146.825,441.38,129.331z M176.553,88.278h-10.063c-0.859,3.157-2.136,6.185-3.796,9.004l7.151,7.15
				c1.653,1.649,2.582,3.888,2.582,6.223s-0.929,4.574-2.582,6.223c-1.628,1.692-3.875,2.648-6.223,2.648s-4.595-0.956-6.223-2.648
				l-7.151-7.15c-2.819,1.66-5.847,2.937-9.004,3.796v10.063c0,4.875-3.952,8.828-8.828,8.828c-4.875,0-8.828-3.952-8.828-8.828
				v-10.063c-3.157-0.859-6.185-2.136-9.004-3.796l-7.151,7.15c-1.628,1.692-3.875,2.648-6.223,2.648s-4.595-0.956-6.223-2.648
				c-1.653-1.649-2.582-3.888-2.582-6.223s0.929-4.574,2.582-6.223l7.151-7.15c-1.661-2.819-2.938-5.847-3.797-9.004H88.277
				c-4.875,0-8.828-3.952-8.828-8.828c0-4.875,3.952-8.828,8.828-8.828H98.34c0.859-3.157,2.136-6.185,3.796-9.004l-7.151-7.15
				c-3.409-3.442-3.396-8.991,0.029-12.417c3.425-3.426,8.975-3.439,12.417-0.03l7.151,7.15c2.819-1.66,5.847-2.937,9.004-3.796
				V35.312c0-4.875,3.952-8.828,8.828-8.828c4.875,0,8.828,3.952,8.828,8.828v10.063c3.157,0.859,6.185,2.136,9.004,3.796
				l7.151-7.15c2.223-2.228,5.465-3.099,8.505-2.286c3.04,0.813,5.414,3.188,6.227,6.228c0.813,3.04-0.058,6.283-2.286,8.505
				l-7.151,7.15c1.661,2.819,2.937,5.847,3.796,9.004h10.063c4.875,0,8.828,3.952,8.828,8.828
				C185.38,84.326,181.428,88.278,176.553,88.278z M300.139,247.174h-10.063c-0.859,3.157-2.136,6.185-3.796,9.004l7.151,7.15
				c1.653,1.649,2.582,3.888,2.582,6.223c0,2.335-0.929,4.574-2.582,6.223c-1.628,1.692-3.875,2.648-6.223,2.648
				s-4.595-0.956-6.223-2.648l-7.151-7.15c-2.819,1.66-5.847,2.937-9.004,3.796v10.063c0,4.875-3.952,8.828-8.828,8.828
				c-4.875,0-8.828-3.952-8.828-8.828v-10.063c-3.157-0.859-6.185-2.136-9.004-3.796l-7.151,7.15
				c-1.628,1.692-3.875,2.648-6.223,2.648c-2.348,0-4.595-0.956-6.223-2.648c-1.653-1.649-2.582-3.888-2.582-6.223
				c0-2.335,0.929-4.574,2.582-6.223l7.151-7.15c-1.661-2.819-2.938-5.847-3.797-9.004h-10.063c-4.875,0-8.828-3.952-8.828-8.828
				c0-4.875,3.952-8.828,8.828-8.828h10.063c0.859-3.157,2.136-6.185,3.796-9.004l-7.151-7.15
				c-3.409-3.442-3.396-8.991,0.029-12.417c3.425-3.426,8.975-3.439,12.417-0.03l7.151,7.15c2.819-1.66,5.847-2.937,9.004-3.796
				v-10.063c0-4.875,3.952-8.828,8.828-8.828c4.875,0,8.828,3.952,8.828,8.828v10.063c3.157,0.859,6.185,2.136,9.004,3.796
				l7.151-7.15c3.438-3.43,9.005-3.427,12.44,0.007s3.437,9.001,0.007,12.44l-7.151,7.15c1.661,2.819,2.937,5.847,3.796,9.004
				h10.063c4.875,0,8.828,3.952,8.828,8.828C308.967,243.222,305.014,247.174,300.139,247.174z M423.725,88.278h-10.063
				c-0.859,3.157-2.136,6.185-3.796,9.004l7.151,7.15c1.653,1.649,2.582,3.888,2.582,6.223s-0.929,4.574-2.582,6.223
				c-1.628,1.692-3.875,2.648-6.223,2.648c-2.348,0-4.595-0.956-6.223-2.648l-7.151-7.15c-2.819,1.66-5.847,2.937-9.004,3.796
				v10.063c0,4.875-3.952,8.828-8.828,8.828c-4.875,0-8.828-3.952-8.828-8.828v-10.063c-3.157-0.859-6.185-2.136-9.004-3.796
				l-7.151,7.15c-1.628,1.692-3.875,2.648-6.223,2.648s-4.595-0.956-6.223-2.648c-1.653-1.649-2.582-3.888-2.582-6.223
				s0.929-4.574,2.582-6.223l7.151-7.15c-1.661-2.819-2.938-5.847-3.797-9.004h-10.063c-4.875,0-8.828-3.952-8.828-8.828
				c0-4.875,3.952-8.828,8.828-8.828h10.063c0.859-3.157,2.136-6.185,3.796-9.004l-7.151-7.15
				c-3.409-3.442-3.396-8.991,0.029-12.417s8.975-3.439,12.417-0.03l7.151,7.15c2.819-1.66,5.847-2.937,9.004-3.796V35.312
				c0-4.875,3.952-8.828,8.828-8.828c4.875,0,8.828,3.952,8.828,8.828v10.063c3.157,0.859,6.185,2.136,9.004,3.796l7.151-7.15
				c2.223-2.228,5.465-3.099,8.505-2.286c3.04,0.813,5.414,3.188,6.227,6.228c0.813,3.04-0.058,6.283-2.286,8.505l-7.151,7.15
				c1.661,2.819,2.937,5.847,3.796,9.004h10.063c4.875,0,8.828,3.952,8.828,8.828C432.553,84.326,428.601,88.278,423.725,88.278z"/>
			<circle cx="379.587" cy="79.45" r="17.655"/>
			<circle cx="256.001" cy="238.347" r="17.655"/>
			<path d="M8.829,503.174c0.014,4.869,3.958,8.813,8.828,8.828h88.276c4.87-0.014,8.813-3.958,8.828-8.828v-26.483H8.829V503.174z"
				/>
			<path d="M397.242,335.45v26.483c0.014,4.87,3.958,8.813,8.828,8.828h88.276c4.869-0.014,8.813-3.958,8.828-8.828V335.45H397.242z
				"/>
		</g>
	</g>
</g>
<g>
</g>
<g>
</g>
<g>
</g>
<g>
</g>
<g>
</g>
<g>
</g>
<g>
</g>
<g>
</g>
<g>
</g>
<g>
</g>
<g>
</g>
<g>
</g>
<g>
</g>
<g>
</g>
<g>
</g>
</svg>
