<svg xmlns="http://www.w3.org/2000/svg" width="210.435" height="168.774" viewBox="0 0 210.435 168.774"><defs><style>.a{fill:#f5f0eb;}.b{fill:#f2d1a5;}.c{fill:#00ee8a;}.d{fill:#919196;}.e{fill:#ff415b;}.f{fill:#ff9f22;}.g{fill:#5ecef4;}</style></defs><g transform="translate(-0.001)"><path class="a" d="M125.272,85.625h83.781a2.053,2.053,0,0,1,2.053,2.053V213.046a2.053,2.053,0,0,1-2.053,2.053H10.94a2.053,2.053,0,0,1-2.053-2.053V87.678a2.053,2.053,0,0,1,2.053-2.053H94.058" transform="translate(-5.234 -50.433)"/><path class="b" d="M100.072,178.092a10.744,10.744,0,0,1-10.744-10.744v-8.1a10.744,10.744,0,0,1,21.488,0v8.1A10.744,10.744,0,0,1,100.072,178.092Zm0,0" transform="translate(-52.613 -87.47)"/><path class="c" d="M50.129,254.418V242.825a29.089,29.089,0,0,1,4.638-15.76,14.419,14.419,0,0,1,12.12-6.608H86.813a14.417,14.417,0,0,1,12.12,6.608,29.089,29.089,0,0,1,4.638,15.76v11.593Zm0,0" transform="translate(-29.525 -129.848)"/><path class="d" d="M100.516,148.508h-.878a10.3,10.3,0,0,0-10.306,10.3v2.429c2.9.79,6.348,1.413,8.369.668,3.967-1.463,7.289-3.1,10.479-2.346a3.866,3.866,0,0,0,2.635-.914,10.3,10.3,0,0,0-10.3-10.142Zm0,0" transform="translate(-52.616 -87.47)"/><path class="d" d="M8.887,303.012v38.045a2.053,2.053,0,0,0,2.053,2.053H209.053a2.054,2.054,0,0,0,2.053-2.053V303.012Zm0,0" transform="translate(-5.234 -178.472)"/><path class="c" d="M311.68,341.5a7.653,7.653,0,1,1-7.652-7.652A7.653,7.653,0,0,1,311.68,341.5Zm0,0" transform="translate(-174.563 -196.632)"/><path class="e" d="M379.508,341.5a7.653,7.653,0,1,1-7.653-7.652A7.653,7.653,0,0,1,379.508,341.5Zm0,0" transform="translate(-214.513 -196.632)"/><path class="f" d="M447.133,341.5a7.653,7.653,0,1,1-7.653-7.652A7.653,7.653,0,0,1,447.133,341.5Zm0,0" transform="translate(-254.344 -196.632)"/><path class="g" d="M247.328,54.074H216.114V25.6a15.607,15.607,0,1,1,31.214,0Zm0,0" transform="translate(-127.289 -5.885)"/><path d="M204.275,31.085H124.6V19.714a19.713,19.713,0,1,0-39.426,0V31.085H6.161A6.167,6.167,0,0,0,0,37.246V162.613a6.168,6.168,0,0,0,6.16,6.16H204.275a6.168,6.168,0,0,0,6.16-6.16V37.246a6.167,6.167,0,0,0-6.16-6.16ZM93.387,19.714a11.516,11.516,0,0,1,7.392-10.739v5.7a4.108,4.108,0,0,0,8.215,0v-5.7a11.517,11.517,0,0,1,7.392,10.739V44.082h-23ZM202.222,160.531H8.215V128.648H20.59a4.137,4.137,0,0,0,.47.027H74.5a4.137,4.137,0,0,0,.47-.027H202.222ZM41.276,79.878V78.759a18.849,18.849,0,0,0,1.978.116,10.709,10.709,0,0,0,3.707-.583c.623-.23,1.231-.462,1.824-.692,2.3-.883,4.311-1.655,5.765-1.58v3.858A6.638,6.638,0,0,1,48.175,86.5h-.522a6.64,6.64,0,0,1-6.377-6.623ZM53.25,67.851a27.627,27.627,0,0,0-7.413,2.084c-.559.214-1.13.433-1.715.649A6.891,6.891,0,0,1,41.4,70.5,6.627,6.627,0,0,1,53.25,67.851ZM37.818,94.716h5.988v9.3a4.108,4.108,0,0,0,8.215,0v-9.3h5.722a10.273,10.273,0,0,1,8.668,4.725,24.94,24.94,0,0,1,3.983,13.536v7.456H25.167v-7.456A24.94,24.94,0,0,1,29.15,99.441a10.271,10.271,0,0,1,8.668-4.725Zm164.4,25.717H78.609v-7.456a33.13,33.13,0,0,0-5.293-17.985A18.44,18.44,0,0,0,61.046,86.8a14.749,14.749,0,0,0,1.718-6.921v-8.1c0-.156-.006-.311-.011-.466,0-.066.01-.132.01-.2A14.473,14.473,0,0,0,48.355,56.929h-.878A14.427,14.427,0,0,0,33.066,71.342v.36c0,.027,0,.053,0,.08v8.1a14.766,14.766,0,0,0,1.7,6.883,18.438,18.438,0,0,0-12.515,8.231,33.134,33.134,0,0,0-5.293,17.985v7.457H8.214V39.3H85.173v8.89A4.107,4.107,0,0,0,89.28,52.3h31.212a4.107,4.107,0,0,0,4.107-4.107V39.3h77.622Zm0,0"/><path d="M299.249,347.37a11.759,11.759,0,1,0-11.76-11.76A11.774,11.774,0,0,0,299.249,347.37Zm0-15.305a3.546,3.546,0,1,1-3.547,3.545A3.549,3.549,0,0,1,299.249,332.065Zm0,0" transform="translate(-169.329 -190.747)"/><path d="M367.077,347.37a11.759,11.759,0,1,0-11.76-11.76A11.772,11.772,0,0,0,367.077,347.37Zm0-15.305a3.546,3.546,0,1,1-3.547,3.545A3.548,3.548,0,0,1,367.077,332.065Zm0,0" transform="translate(-209.279 -190.747)"/><path d="M434.7,347.37a11.759,11.759,0,1,0-11.76-11.76A11.772,11.772,0,0,0,434.7,347.37Zm0-15.305a3.546,3.546,0,1,1-3.547,3.545A3.548,3.548,0,0,1,434.7,332.065Zm0,0" transform="translate(-249.11 -190.747)"/><path d="M242.414,153.037a4.106,4.106,0,0,0,4.107,4.107h67.864a4.107,4.107,0,1,0,0-8.214H246.521A4.107,4.107,0,0,0,242.414,153.037Zm0,0" transform="translate(-142.78 -87.719)"/><path d="M330.915,187.9H246.521a4.107,4.107,0,1,0,0,8.214h84.394a4.107,4.107,0,1,0,0-8.214Zm0,0" transform="translate(-142.78 -110.671)"/><path d="M278.9,223.871H245.021a4.107,4.107,0,0,0,0,8.214H278.9a4.107,4.107,0,1,0,0-8.214Zm0,0" transform="translate(-141.897 -131.859)"/><path d="M404.39,223.871H370.919a4.107,4.107,0,0,0,0,8.214H404.39a4.107,4.107,0,0,0,0-8.214Zm0,0" transform="translate(-216.05 -131.859)"/><path d="M448.5,157.022l.12.093a4.107,4.107,0,0,0,4.967-6.542l-.12-.092a4.107,4.107,0,1,0-4.967,6.541Zm0,0" transform="translate(-263.21 -88.14)"/><path d="M251.92,66.186l-.12-.092a4.107,4.107,0,0,0-4.982,6.53l.12.093a4.107,4.107,0,1,0,4.982-6.531Zm0,0" transform="translate(-144.422 -38.433)"/></g></svg>