<svg xmlns="http://www.w3.org/2000/svg" width="105.993" height="105.992" viewBox="0 0 105.993 105.992"><defs><style>.a{fill:#ebba16;}.b{fill:#42bf96;}.c{fill:#177734;}</style></defs><g transform="translate(0 -0.004)"><g transform="translate(64.674 0.004)"><path class="a" d="M351.93,41.323a1.8,1.8,0,0,1-1.8-1.8A35.971,35.971,0,0,0,314.2,3.6,1.8,1.8,0,1,1,314.2,0a39.567,39.567,0,0,1,39.523,39.523A1.8,1.8,0,0,1,351.93,41.323Z" transform="translate(-312.407 -0.004)"/><path class="a" d="M341.151,82.612a1.8,1.8,0,0,1-1.8-1.8A25.179,25.179,0,0,0,314.2,55.664a1.8,1.8,0,1,1,0-3.593,28.776,28.776,0,0,1,28.744,28.744A1.8,1.8,0,0,1,341.151,82.612Z" transform="translate(-312.407 -41.292)"/><path class="a" d="M330.372,123.9a1.8,1.8,0,0,1-1.8-1.8A14.389,14.389,0,0,0,314.2,107.732a1.8,1.8,0,1,1,0-3.593A17.985,17.985,0,0,1,332.169,122.1,1.8,1.8,0,0,1,330.372,123.9Z" transform="translate(-312.407 -82.581)"/></g><path class="b" d="M104.194,86.691v15.685a10.467,10.467,0,0,1-10.436,10.5q-.493,0-.986-.043A103.8,103.8,0,0,1,47.559,96.78,102.066,102.066,0,0,1,16.126,65.408,103.319,103.319,0,0,1,.043,20.079,10.462,10.462,0,0,1,9.536,8.723q.466-.043.932-.043H26.186a10.47,10.47,0,0,1,10.477,8.993A67.011,67.011,0,0,0,40.33,32.365,10.443,10.443,0,0,1,37.973,43.4l-6.654,6.64A83.75,83.75,0,0,0,62.752,81.409l6.654-6.64A10.5,10.5,0,0,1,80.46,72.416a67.355,67.355,0,0,0,14.722,3.659A10.465,10.465,0,0,1,104.194,86.691Z" transform="translate(0 -6.879)"/><g transform="translate(5.384 7.19)"><path class="c" d="M31.4,59.868a1.8,1.8,0,0,1-1.721-1.283,102.624,102.624,0,0,1-3.656-18.429,5.078,5.078,0,0,1,4.619-5.418q.224-.021.447-.022H45.772a1.8,1.8,0,1,1,0,3.593H31.091a1.58,1.58,0,0,0-1.144.535,1.427,1.427,0,0,0-.347.961,98.866,98.866,0,0,0,3.523,17.751,1.8,1.8,0,0,1-1.723,2.31Z" transform="translate(-26.004 -34.717)"/><path class="c" d="M375.881,403.392c-.043,0-.343-.007-.49-.022a102.431,102.431,0,0,1-18.306-3.647,1.8,1.8,0,0,1,1.031-3.442,98.777,98.777,0,0,0,17.631,3.514l.165,0a1.464,1.464,0,0,0,1.012-.442,1.5,1.5,0,0,0,.435-1.069l0-14.658a1.8,1.8,0,0,1,1.8-1.8h0a1.8,1.8,0,0,1,1.8,1.8l0,14.65a5.088,5.088,0,0,1-5.07,5.111Z" transform="translate(-287.528 -309.974)"/></g></g></svg>