<svg id="Capa_1" enable-background="new 0 0 512 512" height="512" viewBox="0 0 512 512" width="512" xmlns="http://www.w3.org/2000/svg"><g><g><path clip-rule="evenodd" d="m256.056 115.293c12.475 0 22.623-10.177 22.623-22.623 0-12.473-10.148-22.622-22.623-22.622-12.473 0-22.621 10.149-22.621 22.622 0 12.446 10.149 22.623 22.621 22.623z" fill="#ff8086" fill-rule="evenodd"/><path d="m302.519 303.781c44.848 47.795 84.479 90.544 129.213 138.454 13.918 14.968 13.068 38.355-1.9 52.274-7.115 6.634-16.158 9.922-25.201 9.922v.085h-297.147c-20.498 0-37.08-16.612-37.08-37.08 0-10.659 4.479-20.269 11.68-27.044l127.51-136.554c2.807-3.005 4.99-6.832 4.99-12.615v-39.971c0-3.487-1.957-5.811-5.84-5.811h-8.449c-10.262 0-18.652-8.392-18.652-18.653 0-10.29 8.391-18.682 18.652-18.682h14.289 82.947 14.287c10.262 0 18.652 8.391 18.652 18.682 0 10.262-8.391 18.653-18.652 18.653h-8.447c-3.203 0-5.84 2.239-5.84 5.811v39.943c0 4.904 1.672 9.071 4.988 12.586z" fill="#edf4ff"/><path d="m302.519 303.781c44.848 47.795 84.479 90.544 129.213 138.454 13.918 14.968 13.068 38.355-1.9 52.274-7.115 6.634-16.158 9.922-25.201 9.922v.085h-29.113v-.085c9.014 0 18.057-3.288 25.201-9.922 14.939-13.919 15.791-37.306 1.871-52.274-44.734-47.909-84.336-90.659-129.213-138.454-3.287-3.515-4.959-7.682-4.959-12.587v-39.943c0-3.572 2.635-5.811 5.811-5.811h8.447c10.264 0 18.682-8.392 18.682-18.653 0-10.29-8.418-18.682-18.682-18.682h14.855 14.287c10.262 0 18.652 8.391 18.652 18.682 0 10.262-8.391 18.653-18.652 18.653h-8.447c-3.203 0-5.84 2.239-5.84 5.811v39.943c0 4.905 1.672 9.072 4.988 12.587z" fill="#dbeaff"/><g clip-rule="evenodd" fill-rule="evenodd"><path d="m137.447 381.115-55.363 59.276c-7.201 6.775-11.68 16.386-11.68 27.044 0 20.468 16.582 37.08 37.08 37.08h297.146v-.085c9.043 0 18.086-3.288 25.201-9.922 14.969-13.919 15.818-37.306 1.9-52.274-19.051-20.383-38.045-40.765-57.066-61.176-13.607 5.812-27.215 11.907-40.793 11.907-25.967 0-51.906-22.197-77.873-22.197-25.939 0-51.877 22.197-77.844 22.197-13.55 0-27.128-6.067-40.708-11.85z" fill="#b3e59f"/><path d="m375.517 504.515h29.113v-.085c9.043 0 18.086-3.288 25.201-9.922 14.969-13.919 15.818-37.306 1.9-52.274-19.051-20.383-38.045-40.765-57.066-61.176-7.086 3.034-14.174 6.124-21.26 8.419 16.045 17.208 32.26 34.613 49.184 52.757 13.92 14.968 13.068 38.355-1.871 52.274-7.145 6.634-16.188 9.922-25.201 9.922z" fill="#95d6a4"/><path d="m312.074 473.786c9.893 0 17.943-8.051 17.943-17.917 0-9.893-8.051-17.944-17.943-17.944-9.865 0-17.916 8.051-17.916 17.944 0 9.866 8.051 17.917 17.916 17.917z" fill="#ccf49f"/><path d="m231.224 471.859c16.498 0 29.963-13.438 29.963-29.936 0-16.499-13.465-29.965-29.963-29.965-16.5 0-29.938 13.466-29.938 29.965.001 16.498 13.438 29.936 29.938 29.936z" fill="#ccf49f"/></g></g><path d="m238.822 34.131c-11.283-4.847-22.17-8.788-32.375-11.821-3.969-1.163-6.236-5.33-5.074-9.298 1.162-3.969 5.33-6.237 9.299-5.075 11.82 3.515 24.322 8.136 37.164 13.806 2.75 1.19 5.471 2.438 8.25 3.742 24.832-11.68 48.561-19.532 68.717-23.161 30.559-5.472 53.918-1.134 62.875 14.373 8.932 15.478 1.022 37.902-19.021 61.601-3.969 4.734-8.447 9.525-13.379 14.372 4.932 4.82 9.41 9.639 13.408 14.344 19.787 23.473 27.754 45.642 19.277 61.12-3.289 6.889-11.17 11.821-18.172 14.174-7.457 2.495-16.611 3.43-27.072 2.863-4.139-.198-7.315-3.742-7.088-7.853.197-4.138 3.715-7.313 7.854-7.087 8.617.454 15.932-.227 21.543-2.098 4.564-1.531 7.881-3.855 9.695-6.974 7.654-12.53-9.979-35.577-17.49-44.478-3.826-4.536-8.164-9.156-12.955-13.834-16.244 14.231-36.088 28.49-58.455 41.389-4.195 2.409-8.363 4.734-12.529 6.945 12.389 5.329 25.258 10.007 38.299 13.493 3.996 1.078 6.377 5.188 5.301 9.186-1.078 3.997-5.188 6.378-9.184 5.301-12.531-3.374-26.053-8.107-40.057-14.118-3.855-1.644-7.711-3.373-11.623-5.216-24.834 11.679-48.56 19.56-68.746 23.161-21.941 3.94-40.17 2.806-52.018-3.884-8.393-4.762-13.551-12.36-14.373-21.942-1.219-14.174 7.029-31.778 22.537-50.148 3.998-4.705 8.477-9.524 13.408-14.344-4.932-4.847-9.41-9.638-13.408-14.372-20.014-23.727-27.953-46.151-18.994-61.629 4.082-7.087 11.084-11.85 20.354-14.401 8.59-2.381 19.221-2.863 31.324-1.559 4.113.425 7.088 4.11 6.664 8.221-.455 4.111-4.139 7.087-8.25 6.662-10.262-1.106-19.021-.766-25.74 1.077-5.443 1.503-9.383 3.997-11.396 7.484-5.443 9.412 1.645 25.741 17.463 44.478 3.855 4.536 8.193 9.185 12.955 13.862 21.487-18.879 45.725-34.925 71.012-48.362zm-7.598 370.343c10.346 0 19.701 4.168 26.477 10.971 6.775 6.775 10.971 16.13 10.971 26.478 0 10.319-4.195 19.702-10.971 26.477-6.775 6.775-16.131 10.971-26.477 10.971-10.348 0-19.703-4.196-26.479-10.971-6.775-6.775-10.971-16.158-10.971-26.477 0-10.347 4.195-19.702 10.971-26.478 6.776-6.804 16.132-10.971 26.479-10.971zm15.875 21.573c-4.055-4.082-9.666-6.576-15.875-6.576-6.18 0-11.793 2.494-15.875 6.576-4.055 4.054-6.578 9.667-6.578 15.876 0 6.18 2.523 11.792 6.578 15.875 4.082 4.054 9.695 6.577 15.875 6.577 6.209 0 11.82-2.523 15.875-6.577 4.082-4.083 6.576-9.695 6.576-15.875.001-6.209-2.494-11.822-6.576-15.876zm64.975 4.394c7.029 0 13.381 2.835 18 7.427 4.592 4.621 7.457 10.971 7.457 18.001 0 7.031-2.865 13.381-7.457 17.973-4.619 4.621-10.971 7.456-18 7.456-7.004 0-13.381-2.834-17.973-7.456-4.594-4.592-7.457-10.942-7.457-17.973 0-7.03 2.863-13.38 7.457-18.001 4.592-4.592 10.969-7.427 17.973-7.427zm7.398 18.058c-1.9-1.899-4.508-3.061-7.398-3.061-2.863 0-5.473 1.162-7.371 3.061-1.871 1.871-3.062 4.479-3.062 7.37 0 2.864 1.191 5.472 3.062 7.371 1.898 1.899 4.508 3.062 7.371 3.062 2.891 0 5.498-1.162 7.398-3.062 1.871-1.899 3.033-4.507 3.033-7.371.001-2.891-1.161-5.499-3.033-7.37zm-180.125-58.454-51.766 55.45-.027.028c-6.18 6.605-9.666 12.077-9.666 21.913 0 8.165 3.316 15.564 8.674 20.921 5.357 5.33 12.756 8.646 20.922 8.646h296.012c8.053 0 15.252-2.409 21.234-7.966 5.98-5.556 9.127-12.983 9.41-20.524.256-7.569-2.352-15.223-7.908-21.176-17.832-19.106-35.635-38.213-53.465-57.32-12.701 5.386-25.486 10.461-38.895 10.461-14.486 0-28.178-5.868-41.871-11.708-12.246-5.244-24.492-10.489-36.002-10.489-11.48 0-23.727 5.245-35.973 10.46-13.693 5.868-27.385 11.736-41.871 11.736-13.38 0-26.108-5.046-38.808-10.432zm10.885-11.651c9.553 3.883 18.965 7.059 27.924 7.059 11.48 0 23.756-5.216 36.002-10.46 13.691-5.868 27.385-11.708 41.842-11.708 14.486 0 28.18 5.84 41.871 11.708 12.246 5.245 24.494 10.46 36.002 10.46 8.986 0 18.455-3.204 28.008-7.115-26.477-28.405-51.764-55.506-69.283-74.216-1.559-1.39-2.551-3.402-2.551-5.67v-53.012c0-4.139 3.346-7.512 7.484-7.512h14.287c3.062 0 5.84-1.248 7.881-3.26 2.012-2.041 3.26-4.82 3.26-7.881 0-3.062-1.248-5.868-3.26-7.881-2.041-2.041-4.818-3.289-7.881-3.289h-111.523c-3.061 0-5.838 1.247-7.879 3.289-2.014 2.013-3.289 4.819-3.289 7.881 0 3.061 1.275 5.84 3.289 7.881 2.041 2.012 4.818 3.26 7.879 3.26h14.289c4.139 0 7.484 3.373 7.484 7.512v53.068c0 1.843-.682 3.657-2.014 5.103l-24.605 26.364c-2.807 3.005-7.541 3.175-10.574.368-3.033-2.806-3.203-7.541-.369-10.574l22.566-24.181v-42.636h-6.777c-7.199 0-13.748-2.948-18.482-7.682-4.732-4.734-7.682-11.283-7.682-18.483 0-7.201 2.949-13.749 7.682-18.483 4.734-4.762 11.283-7.683 18.482-7.683h111.523c7.199 0 13.75 2.92 18.482 7.683 4.734 4.734 7.684 11.283 7.684 18.483s-2.949 13.749-7.684 18.483c-4.732 4.734-11.283 7.682-18.482 7.682h-6.775v42.608c44.109 47.115 88.107 94.4 132.16 141.572 8.363 8.986 12.275 20.525 11.877 31.892-.424 11.396-5.158 22.622-14.145 30.985-4.195 3.912-8.959 6.831-14.033 8.816-4.762 1.899-11.111 3.175-16.271 3.175h-297.147c-12.332 0-23.473-4.99-31.523-13.04-8.08-8.079-13.068-19.22-13.068-31.523 0-6.236 1.303-12.218 3.684-17.689 2.41-5.557 5.896-10.518 10.207-14.6l84.533-90.545c2.807-3.033 7.541-3.203 10.574-.397 3.033 2.835 3.203 7.569.369 10.574zm105.824-313.674c7.711 0 14.713 3.118 19.76 8.192 5.074 5.046 8.191 12.02 8.191 19.758 0 7.711-3.117 14.713-8.191 19.759-5.047 5.046-12.049 8.192-19.76 8.192s-14.713-3.146-19.758-8.192c-5.074-5.046-8.193-12.048-8.193-19.759 0-7.739 3.119-14.712 8.193-19.758 5.046-5.075 12.047-8.192 19.758-8.192zm9.159 18.794c-2.355-2.353-5.586-3.798-9.158-3.798-3.57 0-6.83 1.446-9.156 3.798-2.354 2.325-3.799 5.585-3.799 9.156 0 3.572 1.445 6.804 3.799 9.157 2.326 2.353 5.586 3.798 9.156 3.798 3.572 0 6.803-1.446 9.158-3.798 2.352-2.354 3.797-5.585 3.797-9.157-.001-3.571-1.446-6.831-3.797-9.156zm68.005 9.156c-15.279-13.267-33.904-26.534-54.881-38.639-7.457-4.309-14.912-8.277-22.311-11.934-27.244 13.465-54.516 30.928-77.137 50.573 22.764 19.731 49.893 37.081 77.193 50.574 7.342-3.657 14.797-7.625 22.281-11.963 20.98-12.076 39.576-25.344 54.855-38.611zm-59.927-58.539c4.166 2.211 8.363 4.536 12.559 6.945 22.338 12.927 42.211 27.158 58.453 41.417 4.764-4.678 9.102-9.326 12.928-13.862 15.846-18.766 22.934-35.067 17.49-44.507-5.441-9.412-23.104-11.425-47.283-7.087-16.048 2.892-34.557 8.646-54.147 17.094zm-34.471 117.079c-25.23-13.437-49.582-29.567-71.014-48.362-4.762 4.678-9.1 9.298-12.955 13.834-10.318 12.246-16.924 23.416-18.738 32.345-1.842 8.874 1.021 15.308 9.439 18.71 8.59 3.515 22.254 3.572 39.094.567 16.072-2.891 34.584-8.674 54.174-17.094z"/></g></svg>