<svg xmlns="http://www.w3.org/2000/svg" width="213.488" height="213.488" viewBox="0 0 213.488 213.488"><defs><style>.a{fill:#42bf96;}.b{fill:#34866b;}</style></defs><g transform="translate(-8 -8)"><path class="a" d="M222.6,26.33V36.66H16V26.33A10.333,10.333,0,0,1,26.33,16H212.271A10.333,10.333,0,0,1,222.6,26.33Z" transform="translate(-4.557 -4.557)"/><g transform="translate(8 8)"><path class="b" d="M207.715,8H21.773A13.786,13.786,0,0,0,8,21.773V207.715a13.786,13.786,0,0,0,13.773,13.773H207.715a13.786,13.786,0,0,0,13.773-13.773V21.773A13.786,13.786,0,0,0,207.715,8ZM214.6,207.715a6.9,6.9,0,0,1-6.887,6.887H21.773a6.9,6.9,0,0,1-6.887-6.887V35.547H214.6Zm0-179.055H14.887V21.773a6.9,6.9,0,0,1,6.887-6.887H207.715a6.9,6.9,0,0,1,6.887,6.887Z" transform="translate(-8 -8)"/><circle class="b" cx="3.5" cy="3.5" r="3.5" transform="translate(10 10.488)"/><circle class="b" cx="3.5" cy="3.5" r="3.5" transform="translate(20 10.488)"/><circle class="b" cx="3.5" cy="3.5" r="3.5" transform="translate(31 10.488)"/><path class="b" d="M323.857,424H227.443a3.443,3.443,0,0,0,0,6.887h96.414a3.443,3.443,0,0,0,0-6.887Z" transform="translate(-131.029 -244.945)"/><path class="b" d="M364.764,448h-41.32a3.443,3.443,0,0,0,0,6.887h41.32a3.443,3.443,0,0,0,0-6.887Z" transform="translate(-185.709 -258.615)"/><path class="b" d="M446.887,448h-3.443a3.443,3.443,0,1,0,0,6.887h3.443a3.443,3.443,0,0,0,0-6.887Z" transform="translate(-254.059 -258.615)"/><path class="b" d="M233.32,257.527a13.789,13.789,0,0,0,13.773-13.773v-61.98A13.789,13.789,0,0,0,233.32,168H205.773A13.789,13.789,0,0,0,192,181.773v61.98a13.789,13.789,0,0,0,13.773,13.773Zm-34.434-13.773v-61.98a6.9,6.9,0,0,1,6.887-6.887H233.32a6.9,6.9,0,0,1,6.887,6.887v61.98a6.9,6.9,0,0,1-6.887,6.887H205.773A6.9,6.9,0,0,1,198.887,243.754Z" transform="translate(-112.803 -99.133)"/><path class="b" d="M391.094,212.764a3.443,3.443,0,0,1-3.443,3.443h-6.887v37.877a3.443,3.443,0,0,1-6.887,0V216.207H339.443A3.443,3.443,0,0,1,336,212.764v-41.32a3.443,3.443,0,1,1,6.887,0V209.32h30.99V171.443a3.443,3.443,0,1,1,6.887,0V209.32h6.887A3.443,3.443,0,0,1,391.094,212.764Z" transform="translate(-194.822 -99.133)"/><path class="b" d="M99.65,209.32H92.764V171.443a3.443,3.443,0,0,0-6.887,0V209.32H54.887V171.443a3.443,3.443,0,0,0-6.887,0v41.32a3.443,3.443,0,0,0,3.443,3.443H85.877v37.877a3.443,3.443,0,0,0,6.887,0V216.207H99.65a3.443,3.443,0,1,0,0-6.887Z" transform="translate(-30.783 -99.133)"/><path class="b" d="M51.443,94.887H96.207a3.443,3.443,0,0,0,0-6.887H51.443a3.443,3.443,0,0,0,0,6.887Z" transform="translate(-30.783 -53.566)"/><path class="b" d="M51.443,118.887H65.217a3.443,3.443,0,0,0,0-6.887H51.443a3.443,3.443,0,0,0,0,6.887Z" transform="translate(-30.783 -67.236)"/><path class="b" d="M107.443,112a3.443,3.443,0,0,0,0,6.887h3.443a3.443,3.443,0,0,0,0-6.887Z" transform="translate(-62.68 -67.236)"/></g></g></svg>