<svg id="Capa_1" enable-background="new 0 0 512 512" height="512" viewBox="0 0 512 512" width="512" xmlns="http://www.w3.org/2000/svg"><path d="m501.674 499.674h-491.674c-5.523 0-10-4.477-10-10v-374.555c0-5.523 4.477-10 10-10h491.674c5.523 0 10 4.477 10 10v374.556c0 5.522-4.477 9.999-10 9.999z" fill="#a3e72d"/><path d="m511.67 115.118v374.556c0 5.523-4.477 10-10 10h-54.908c17.442 0 31.569-14.137 31.569-31.569v-331.418c0-17.432-14.127-31.569-31.569-31.569h54.908c5.523 0 10 4.478 10 10z" fill="#80cf00"/><path d="m341.807 291.665c-18.849-29.191-51.222-46.824-85.97-46.824-34.748 0-67.122 17.632-85.97 46.824l-134.311 208.009h220.281 220.281z" fill="#6db000"/><path d="m476.121 499.675h-42.935l-134.315-208.005c-14.89-23.069-38.215-38.915-64.497-44.551 6.977-1.498 14.171-2.276 21.463-2.276 34.746 0 67.118 17.629 85.969 46.828z" fill="#5a9200"/><path d="m255.837 105.119h-228.051l191.185 199.41c20.569 19.852 53.163 19.852 73.731 0l191.185-199.41z" fill="#eefadb"/><path d="m483.891 105.118-191.193 199.41c-14.991 14.466-36.377 18.389-54.828 11.758 6.857-2.461 13.323-6.373 18.894-11.758l191.183-199.41z" fill="#d1f29c"/><circle cx="410.135" cy="114.188" fill="#ff5757" r="101.863"/><path d="m512 114.188c0 56.259-45.603 101.862-101.862 101.862-24.258 0-46.529-8.474-64.023-22.642 11.82 4.798 24.742 7.444 38.282 7.444 56.259 0 101.862-45.603 101.862-101.862 0-32.001-14.755-60.563-37.839-79.22 37.283 15.126 63.58 51.698 63.58 94.418z" fill="#f72c2c"/><path d="m470.173 82.899-18.614-18.614c-2.878-2.878-7.545-2.878-10.424 0l-47.518 47.518-14.988-14.988c-2.2-2.199-5.765-2.199-7.965 0l-21.074 21.074c-2.2 2.199-2.2 5.765 0 7.965l39.389 38.239c2.878 2.878 7.545 2.878 10.424 0l70.769-70.769c2.879-2.88 2.879-7.547.001-10.425z" fill="#fff5f5"/><path d="m470.174 93.321-70.771 70.771c-2.875 2.875-7.55 2.875-10.424 0l-5.307-5.149c.337-.232.653-.505.948-.8l78.511-78.51c.663-.663 1.19-1.411 1.569-2.211l5.475 5.476c2.874 2.884 2.874 7.549-.001 10.423z" fill="#efe2dd"/></svg>