<svg xmlns="http://www.w3.org/2000/svg" width="185.435" height="162.994" viewBox="0 0 185.435 162.994"><defs><style>.a{fill:#42bf96;}</style></defs><g transform="translate(0 -30.978)"><path class="a" d="M90.808,106.7a5.463,5.463,0,0,0,3.82,0l68.722-25.77v59.412a21.506,21.506,0,0,1,10.866,0V76.85l7.705-2.754a5.441,5.441,0,0,0,0-10.177L94.628,31.32a5.5,5.5,0,0,0-3.82,0L3.514,63.919a5.441,5.441,0,0,0,0,10.177Z" transform="translate(0 0)"/><path class="a" d="M437.275,360.972c-9.29,0-16.3,11.678-16.3,27.166V399a5.43,5.43,0,0,0,5.433,5.433h21.733A5.43,5.43,0,0,0,453.574,399V388.138C453.574,372.65,446.565,360.972,437.275,360.972Z" transform="translate(-268.492 -210.466)"/><path class="a" d="M206.933,215.86l-50.471,18.927a16.33,16.33,0,0,1-11.413.01L94.541,215.859c-4.532,16.609-3.379,27.509-3.57,30.829a5.439,5.439,0,0,0,7.444,5.046c.128-.048,12.83-5.046,25.155-5.046,11.466,0,23.659,9.582,23.781,9.683a5.458,5.458,0,0,0,6.781-.005c3.364-2.7,14.193-9.678,23.771-9.678,12.325,0,25.028,5,25.155,5.046a5.44,5.44,0,0,0,7.444-5.046c-.182-3.186.936-14.319-3.569-30.828Z" transform="translate(-58.019 -117.915)"/></g></svg>